# xmcd
#
# Track frame offsets: 
#        150
#        15444
#        33504
#        56366
#        74220
#        95285
#        115044
#        132581
#        156163
#        174880
#        188795
#        211874
#        223654
#        247113
#
# Disc length: 3527 seconds
#
# Revision: 0
# Processed by: cddbd v1.5PL3 Copyright (c) Steve Scherf et al.
# Submitted via: ExactAudioCopy v0.95a5
#
DISCID=c40dc50e
DTITLE=Ferhat Tunç - Sarkilarim Taniktir
DYEAR=1900
DGENRE=
TTITLE0=Askimizin kiblesi
TTITLE1=Ozlemin dili olsaydi
TTITLE2=Bir kanar dag türküsü
TTITLE3=Hani benim gençligim
TTITLE4=Vaylar beni
TTITLE5=Vurgunum hasretine
TTITLE6=Dili yar
TTITLE7=Bugün degil yarinsin sen
TTITLE8=Vuruldu
TTITLE9=Kanmasinlar
TTITLE10=Olmaz olsun
TTITLE11=Merhaba
TTITLE12=Duslerimi aldi gece
TTITLE13=Birindarim
EXTD=
EXTT0=
EXTT1=
EXTT2=
EXTT3=
EXTT4=
EXTT5=
EXTT6=
EXTT7=
EXTT8=
EXTT9=
EXTT10=
EXTT11=
EXTT12=
EXTT13=
PLAYORDER=
